<svg width="100" height="100" viewBox="0 0 100 100" fill="none" xmlns="http://www.w3.org/2000/svg">
<rect width="100" height="100" rx="50" fill="#BCC3CD"/>
<path d="M50.0998 87.43C60.3398 87.43 69.5698 83.15 76.1198 76.29C78.9098 73.37 78.8698 68.73 76.1198 65.79C69.2598 58.47 60.1298 54 50.0998 54C40.0698 54 30.9398 58.47 24.0798 65.79C21.3198 68.73 21.2898 73.37 24.0798 76.29C30.6298 83.15 39.8698 87.43 50.0998 87.43Z" fill="#D6DBE0"/>
<path d="M50.0996 47.58C55.7826 47.58 60.3896 42.973 60.3896 37.29C60.3896 31.607 55.7826 27 50.0996 27C44.4166 27 39.8096 31.607 39.8096 37.29C39.8096 42.973 44.4166 47.58 50.0996 47.58Z" fill="#D6DBE0"/>
</svg>
