<svg width="88" height="75" viewBox="0 0 88 75" fill="none" xmlns="http://www.w3.org/2000/svg">
<path d="M76 0H12C5.37258 0 0 5.37258 0 12V44C0 50.6274 5.37258 56 12 56H32.5H57H76C82.6274 56 88 50.6274 88 44V12C88 5.37258 82.6274 0 76 0Z" fill="#F4F4F4"/>
<path d="M33.2152 56.1858L48.3855 69.2875C50.9772 71.5258 55 69.6846 55 66.2602L55 57.4039C55 56.6285 55.6285 56 56.4039 56L56.5192 56C57.0956 56 57.5981 55.6077 57.7379 55.0485C57.8886 54.4457 57.5759 53.8233 57.0024 53.5843L46.5539 49.2308C46.1926 49.0803 45.795 49.039 45.4105 49.1123L36.1617 50.874C35.7324 50.9557 35.3417 51.1759 35.0494 51.5007L32.1477 54.7247C31.7052 55.2164 32.0542 56 32.7157 56C32.8991 56 33.0764 56.066 33.2152 56.1858Z" fill="#F4F4F4"/>
<circle cx="52" cy="20" r="2" fill="#DEDEDE"/>
<circle cx="36" cy="20" r="2" fill="#DEDEDE"/>
<path d="M33 32.5983C34.8525 30.4801 39.0806 29 44 29C48.9194 29 53.1475 30.4801 55 32.5983" stroke="#DEDEDE" stroke-width="2" stroke-linecap="round"/>
</svg>
