<svg width="25" height="24" viewBox="0 0 25 24" fill="none" xmlns="http://www.w3.org/2000/svg">
<path fill-rule="evenodd" clip-rule="evenodd" d="M20.6667 12C20.6667 16.4183 17.085 20 12.6667 20C11.87 20 11.1004 19.8835 10.3742 19.6667H6.00008C5.4478 19.6667 5.00008 19.219 5.00008 18.6667C5.00008 18.1144 5.4478 17.6667 6.00008 17.6667H7.01972C5.56623 16.2182 4.66675 14.2141 4.66675 12C4.66675 7.58172 8.24847 4 12.6667 4C17.085 4 20.6667 7.58172 20.6667 12ZM9.66675 13C10.219 13 10.6667 12.5523 10.6667 12C10.6667 11.4477 10.219 11 9.66675 11C9.11446 11 8.66675 11.4477 8.66675 12C8.66675 12.5523 9.11446 13 9.66675 13ZM13.6667 12C13.6667 12.5523 13.219 13 12.6667 13C12.1145 13 11.6667 12.5523 11.6667 12C11.6667 11.4477 12.1145 11 12.6667 11C13.219 11 13.6667 11.4477 13.6667 12ZM15.6667 13C16.219 13 16.6667 12.5523 16.6667 12C16.6667 11.4477 16.219 11 15.6667 11C15.1145 11 14.6667 11.4477 14.6667 12C14.6667 12.5523 15.1145 13 15.6667 13Z" fill="#D6DBE0"/>
</svg>
