<svg width="16" height="16" viewBox="0 0 16 16" fill="none" xmlns="http://www.w3.org/2000/svg">
<path fill-rule="evenodd" clip-rule="evenodd" d="M9.98262 9.46176L7.21339 14.0771C5.82877 13.6156 4.44416 11.7695 4.9057 9.46176H3.00066C2.33628 9.46176 1.85661 8.82586 2.03913 8.18704L3.31386 3.7255C3.43652 3.2962 3.8289 3.00023 4.27538 3.00023H7.98262C9.08719 3.00023 9.98262 3.89566 9.98262 5.00023V9.46176ZM12.6749 9.46176C13.2272 9.46176 13.6749 9.01405 13.6749 8.46176V4.00023C13.6749 3.44794 13.2272 3.00023 12.6749 3.00023H11.9057C11.3534 3.00023 10.9057 3.44794 10.9057 4.00023V8.46176C10.9057 9.01405 11.3534 9.46176 11.9057 9.46176H12.6749Z" fill="#D6DBE0"/>
</svg>
