<svg width="25" height="24" viewBox="0 0 25 24" fill="none" xmlns="http://www.w3.org/2000/svg">
<path fill-rule="evenodd" clip-rule="evenodd" d="M15.7732 14.6748L11.9781 21C10.0805 20.3675 8.18296 17.8374 8.81548 14.6748H5.71357C5.04919 14.6748 4.56952 14.0389 4.75204 13.4001L6.71069 6.5448C6.83335 6.1155 7.22574 5.81952 7.67222 5.81952H13.7732C14.8778 5.81952 15.7732 6.71495 15.7732 7.81952V14.6748ZM19.8334 14.675C20.3857 14.675 20.8334 14.2273 20.8334 13.675V6.81973C20.8334 6.26744 20.3857 5.81973 19.8334 5.81973H18.0383C17.486 5.81973 17.0383 6.26744 17.0383 6.81973V13.675C17.0383 14.2273 17.486 14.675 18.0383 14.675H19.8334Z" fill="#D6DBE0"/>
</svg>
