<svg width="16" height="16" viewBox="0 0 16 16" fill="none" xmlns="http://www.w3.org/2000/svg">
<path fill-rule="evenodd" clip-rule="evenodd" d="M14.207 9.66501C15.2401 8.74958 15.2401 7.21064 14.207 6.2952C12.7731 5.02474 10.5261 3.5 8.00001 3.5C5.47396 3.5 3.22693 5.02474 1.79307 6.2952C0.759896 7.21064 0.759895 8.74957 1.79307 9.66501C3.22693 10.9355 5.47396 12.4602 8.00001 12.4602C10.5261 12.4602 12.7731 10.9355 14.207 9.66501ZM8.00018 10.7802C9.54662 10.7802 10.8003 9.52654 10.8003 7.9801C10.8003 6.43367 9.54662 5.18004 8.00018 5.18004C6.45375 5.18004 5.20012 6.43367 5.20012 7.9801C5.20012 9.52654 6.45375 10.7802 8.00018 10.7802Z" fill="#D6DBE0"/>
</svg>
