<svg width="24" height="24" viewBox="0 0 24 24" fill="none" xmlns="http://www.w3.org/2000/svg">
<path d="M11.1586 4.40957C11.5522 3.7968 12.4478 3.7968 12.8414 4.40957L15.0281 7.8141C15.1636 8.02493 15.3732 8.17724 15.6155 8.24088L19.5292 9.26854C20.2336 9.4535 20.5103 10.3053 20.0492 10.869L17.487 14.0007C17.3284 14.1947 17.2483 14.4411 17.2627 14.6913L17.4947 18.7309C17.5364 19.458 16.8119 19.9844 16.1333 19.72L12.363 18.2511C12.1296 18.1601 11.8704 18.1601 11.637 18.2511L7.86671 19.72C7.18813 19.9844 6.46355 19.458 6.50531 18.7309L6.73734 14.6913C6.75171 14.4411 6.67163 14.1947 6.51296 14.0007L3.9508 10.869C3.48965 10.3053 3.76642 9.4535 4.47081 9.26854L8.38445 8.24088C8.62681 8.17724 8.83645 8.02493 8.97187 7.8141L11.1586 4.40957Z" stroke="#AFB8C3" stroke-width="2"/>
</svg>
