<svg width="25" height="24" viewBox="0 0 25 24" fill="none" xmlns="http://www.w3.org/2000/svg">
<path fill-rule="evenodd" clip-rule="evenodd" d="M9.56019 10.3252L13.3553 4C15.2529 4.63252 17.1505 7.16261 16.5179 10.3252H19.6199C20.2842 10.3252 20.7639 10.9611 20.5814 11.5999L18.6227 18.4552C18.5001 18.8845 18.1077 19.1805 17.6612 19.1805H11.5602C10.4556 19.1805 9.56019 18.2851 9.56019 17.1805V10.3252ZM5.5 10.325C4.94772 10.325 4.5 10.7727 4.5 11.325V18.1803C4.5 18.7326 4.94772 19.1803 5.5 19.1803H7.29513C7.84742 19.1803 8.29513 18.7326 8.29513 18.1803V11.325C8.29513 10.7727 7.84741 10.325 7.29513 10.325H5.5Z" fill="#FF2EAB"/>
</svg>
