<svg width="16" height="16" viewBox="0 0 16 16" fill="none" xmlns="http://www.w3.org/2000/svg">
<path fill-rule="evenodd" clip-rule="evenodd" d="M5.69231 5.61538L8.46154 1C9.84615 1.46154 11.2308 3.30769 10.7692 5.61538H12.6743C13.3386 5.61538 13.8183 6.25129 13.6358 6.89011L12.3611 11.3516C12.2384 11.7809 11.846 12.0769 11.3995 12.0769H7.69231C6.58774 12.0769 5.69231 11.1815 5.69231 10.0769V5.61538ZM3 5.61538C2.44772 5.61538 2 6.0631 2 6.61539V11.0769C2 11.6292 2.44771 12.0769 3 12.0769H3.76923C4.32152 12.0769 4.76923 11.6292 4.76923 11.0769V6.61538C4.76923 6.0631 4.32152 5.61538 3.76923 5.61538H3Z" fill="#FF2EAB"/>
</svg>
