<svg width="24" height="24" viewBox="0 0 24 24" fill="none" xmlns="http://www.w3.org/2000/svg">
<rect width="24" height="24" rx="12" fill="#FF2EAB"/>
<path d="M16.9012 9.07267C17.0327 8.94122 17.0327 8.7281 16.9012 8.59665L15.4032 7.09859C15.2717 6.96714 15.0586 6.96714 14.9272 7.09859L13.4291 8.59665C13.2976 8.7281 13.2976 8.94122 13.4291 9.07267L14.9272 10.5707C15.0586 10.7022 15.2717 10.7022 15.4032 10.5707L16.9012 9.07267Z" fill="white"/>
<path d="M14.2693 11.7048C14.4008 11.5733 14.4008 11.3602 14.2693 11.2287L12.7713 9.73069C12.6398 9.59924 12.4267 9.59924 12.2952 9.73069L7.34835 14.6776C7.29686 14.7291 7.26345 14.7959 7.25315 14.868L7.00347 16.6157C6.97174 16.8379 7.16215 17.0283 7.38429 16.9965L9.13203 16.7469C9.20413 16.7366 9.27094 16.7031 9.32244 16.6516L14.2693 11.7048Z" fill="white"/>
</svg>
