<svg width="24" height="24" viewBox="0 0 24 24" fill="none" xmlns="http://www.w3.org/2000/svg">
<path fill-rule="evenodd" clip-rule="evenodd" d="M19.5788 7.28592C19.7741 7.09066 19.7741 6.77408 19.5788 6.57882L17.3536 4.35355C17.1583 4.15829 16.8417 4.15829 16.6464 4.35355L14.4212 6.57882C14.2259 6.77408 14.2259 7.09066 14.4212 7.28592L16.6464 9.51119C16.8417 9.70645 17.1583 9.70645 17.3536 9.51119L19.5788 7.28592ZM15.6693 11.1957C15.8645 11.0005 15.8645 10.6839 15.6693 10.4886L13.444 8.26336C13.2487 8.0681 12.9322 8.0681 12.7369 8.26336L5.38865 15.6116C5.31215 15.6881 5.26253 15.7874 5.24723 15.8945L4.87635 18.4906C4.82921 18.8206 5.11205 19.1034 5.44203 19.0563L8.03818 18.6854C8.14527 18.6701 8.24452 18.6205 8.32102 18.544L15.6693 11.1957Z" fill="white"/>
</svg>
