<svg width="16" height="16" viewBox="0 0 16 16" fill="none" xmlns="http://www.w3.org/2000/svg">
<path d="M7.15861 2.80996C7.55219 2.19719 8.44781 2.1972 8.84139 2.80996L10.1758 4.88756C10.3113 5.0984 10.5209 5.25071 10.7633 5.31435L13.1515 5.94147C13.8559 6.12643 14.1327 6.97822 13.6716 7.54189L12.108 9.45304C11.9493 9.64699 11.8693 9.89343 11.8836 10.1436L12.0252 12.6088C12.067 13.3359 11.3424 13.8623 10.6638 13.5979L8.36304 12.7015C8.12956 12.6105 7.87044 12.6105 7.63696 12.7015L5.33618 13.5979C4.65759 13.8623 3.93302 13.3359 3.97478 12.6088L4.11637 10.1436C4.13074 9.89343 4.05066 9.64699 3.892 9.45304L2.32844 7.54189C1.86729 6.97822 2.14406 6.12643 2.84845 5.94147L5.23674 5.31435C5.4791 5.25071 5.68874 5.0984 5.82416 4.88756L7.15861 2.80996Z" fill="#D6DBE0"/>
</svg>
