<svg width="16" height="16" viewBox="0 0 16 16" fill="none" xmlns="http://www.w3.org/2000/svg">
<path fill-rule="evenodd" clip-rule="evenodd" d="M0 3C0 1.34315 1.34315 0 3 0H13C14.6569 0 16 1.34315 16 3V13C16 14.6569 14.6569 16 13 16H3C1.34315 16 0 14.6569 0 13V3ZM4.53045 8.58621L2.91136 11.3063C2.71297 11.6396 2.95314 12.062 3.341 12.062H12.6589C13.0468 12.062 13.287 11.6396 13.0886 11.3063L10.0078 6.13055C9.81492 5.80652 9.34645 5.80448 9.15075 6.1268L7.19871 9.34194C7.03832 9.6061 6.67909 9.66296 6.44496 9.46125L5.28645 8.46315C5.05097 8.26028 4.68942 8.31913 4.53045 8.58621ZM4.67692 6.5233C5.28868 6.5233 5.78461 6.02737 5.78461 5.41561C5.78461 4.80384 5.28868 4.30791 4.67692 4.30791C4.06516 4.30791 3.56923 4.80384 3.56923 5.41561C3.56923 6.02737 4.06516 6.5233 4.67692 6.5233Z" fill="#AFB8C3"/>
</svg>
